<svg width="67" height="40" viewBox="0 0 67 40" fill="none" xmlns="http://www.w3.org/2000/svg">
<rect x="27.5" y="0.5" width="39" height="27" rx="3.5" stroke="#C4C4C4"/>
<rect x="31.5" y="9.5" width="13" height="13" rx="1.5" stroke="#C4C4C4"/>
<circle cx="62" cy="4" r="1" fill="#C4C4C4"/>
<line x1="50.5" y1="10.5" x2="57.5" y2="10.5" stroke="#C4C4C4" stroke-linecap="round"/>
<line x1="31.5" y1="4.5" x2="34.5" y2="4.5" stroke="#C4C4C4" stroke-linecap="round"/>
<line x1="50.5249" y1="12.5" x2="62.5249" y2="12.5" stroke="#C4C4C4" stroke-linecap="round"/>
<line x1="50.5249" y1="14.5" x2="59.5748" y2="14.5" stroke="#C4C4C4" stroke-linecap="round"/>
<line x1="51.5" y1="20.5" x2="58.5" y2="20.5" stroke="#C4C4C4" stroke-width="3" stroke-linecap="round"/>
<path d="M15.0008 10C6.72929 10 0.000488281 16.7285 0.000488281 24.9994C0.000488281 33.2709 6.7296 40 15.0005 40C23.2711 40 29.9996 33.2709 29.9996 24.9994C29.9999 16.7288 23.2714 10 15.0008 10ZM1.5142 24.9994C1.5142 23.0446 1.93347 21.188 2.68191 19.5112L9.1152 37.1372C4.61676 34.9507 1.5142 30.3376 1.5142 24.9994ZM15.0008 38.4866C13.6769 38.4866 12.3992 38.2924 11.191 37.937L15.2371 26.1792L19.3833 37.5362C19.4101 37.6032 19.4428 37.6643 19.4793 37.7219C18.0775 38.2151 16.5712 38.4866 15.0008 38.4866ZM16.859 18.6764C17.6707 18.6337 18.4029 18.548 18.4029 18.548C19.1292 18.462 19.0441 17.3943 18.3166 17.437C18.3166 17.437 16.1323 17.6082 14.7218 17.6082C13.397 17.6082 11.1694 17.437 11.1694 17.437C10.4425 17.3943 10.3577 18.5053 11.0843 18.548C11.0843 18.548 11.7726 18.6337 12.4986 18.6764L14.5996 24.4336L11.6482 33.2849L6.73802 18.6767C7.55099 18.6344 8.28166 18.5483 8.28166 18.5483C9.00797 18.4626 8.92225 17.3943 8.195 17.438C8.195 17.438 6.01171 17.6091 4.60086 17.6091C4.34743 17.6091 4.04912 17.6026 3.73303 17.5929C6.14388 13.9311 10.2895 11.5137 15.0008 11.5137C18.5123 11.5137 21.7087 12.856 24.1077 15.0539C24.0494 15.0508 23.993 15.043 23.9325 15.043C22.6083 15.043 21.6682 16.197 21.6682 17.4367C21.6682 18.5477 22.3088 19.4885 22.9924 20.5994C23.5058 21.4978 24.1043 22.6521 24.1043 24.3189C24.1043 25.4735 23.661 26.8127 23.0778 28.6786L21.7327 33.1739L16.859 18.6764ZM21.7804 36.6571L25.8998 24.7469C26.6701 22.8233 26.9254 21.2849 26.9254 19.9161C26.9254 19.4202 26.8929 18.9592 26.8343 18.5293C27.888 20.4504 28.4874 22.6552 28.4868 25C28.4865 29.9751 25.7895 34.3192 21.7804 36.6571Z" fill="#A0A0A0"/>
</svg>
