<svg width="67" height="40" viewBox="0 0 67 40" fill="none" xmlns="http://www.w3.org/2000/svg">
<rect x="26.5" y="0.5" width="39" height="27" rx="3.5" stroke="#C4C4C4"/>
<rect x="30.5" y="9.5" width="13" height="13" rx="1.5" stroke="#C4C4C4"/>
<circle cx="61" cy="4" r="1" fill="#C4C4C4"/>
<line x1="49.5" y1="10.5" x2="56.5" y2="10.5" stroke="#C4C4C4" stroke-linecap="round"/>
<line x1="30.5" y1="4.5" x2="33.5" y2="4.5" stroke="#C4C4C4" stroke-linecap="round"/>
<line x1="49.5249" y1="12.5" x2="61.5249" y2="12.5" stroke="#C4C4C4" stroke-linecap="round"/>
<line x1="49.5249" y1="14.5" x2="58.5748" y2="14.5" stroke="#C4C4C4" stroke-linecap="round"/>
<line x1="50.5" y1="20.5" x2="57.5" y2="20.5" stroke="#C4C4C4" stroke-width="3" stroke-linecap="round"/>
<path d="M2.29688 32.8672L7.46094 34.8438V36.6953L0.875 33.7891V32.5625L2.29688 32.8672ZM7.46094 31.25L2.29688 33.2578L0.875 33.5312V32.3047L7.46094 29.4062V31.25ZM17.2031 31.375V32.9297H11.1641V31.375H17.2031ZM11.6484 26.625V38H9.6875V26.625H11.6484ZM18.7109 26.625V38H16.7578V26.625H18.7109ZM25.4922 26.625V38H23.5469V26.625H25.4922ZM29.0625 26.625V28.1875H20.0078V26.625H29.0625ZM31.3594 26.625H33.1094L36.3984 35.3984L39.6797 26.625H41.4297L37.0859 38H35.6953L31.3594 26.625ZM30.5625 26.625H32.2266L32.5156 34.2188V38H30.5625V26.625ZM40.5625 26.625H42.2344V38H40.2734V34.2188L40.5625 26.625ZM51.6875 36.4453V38H45.9766V36.4453H51.6875ZM46.5234 26.625V38H44.5625V26.625H46.5234ZM57.9609 26.625L53.5312 38.9766H52.0547L56.4922 26.625H57.9609ZM64.5391 33.1797L59.2812 31.2188V29.3984L66.0312 32.2969V33.5312L64.5391 33.1797ZM59.2812 34.8672L64.5547 32.8672L66.0312 32.5547V33.7812L59.2812 36.6875V34.8672Z" fill="#A0A0A0"/>
</svg>
