<svg width="60" height="64" viewBox="0 0 60 64" fill="none" xmlns="http://www.w3.org/2000/svg">
<path d="M44.7501 57.5476C43.607 58.2075 42.0992 58.2375 40.2767 57.6072C38.4558 56.9774 36.384 55.7075 34.1911 53.8763C29.8084 50.2165 25.0274 44.3869 20.9068 37.2498C16.7862 30.1127 14.1281 23.0574 13.15 17.4321C12.6606 14.6173 12.5967 12.1881 12.9617 10.2963C13.3271 8.4028 14.107 7.11202 15.2501 6.45206C16.3932 5.7921 17.901 5.7621 19.7235 6.39243C21.5444 7.02218 23.6161 8.29209 25.8091 10.1233C30.1917 13.7831 34.9727 19.6127 39.0934 26.7498C43.214 33.8869 45.8721 40.9422 46.8502 46.5675C47.3396 49.3823 47.4035 51.8115 47.0384 53.7033C46.673 55.5968 45.8932 56.8876 44.7501 57.5476Z" stroke="#C4C4C4"/>
<circle cx="30" cy="32" r="4" fill="#C4C4C4"/>
<path d="M59.5 32C59.5 33.3199 58.7721 34.6407 57.3149 35.9039C55.8591 37.1659 53.7235 38.3252 51.0411 39.3087C45.6803 41.2743 38.2413 42.5 30 42.5C21.7587 42.5 14.3197 41.2743 8.95892 39.3087C6.27655 38.3252 4.14088 37.1659 2.68506 35.9039C1.22792 34.6407 0.5 33.3199 0.5 32C0.5 30.6801 1.22792 29.3593 2.68506 28.0961C4.14088 26.8341 6.27655 25.6748 8.95892 24.6913C14.3197 22.7257 21.7587 21.5 30 21.5C38.2413 21.5 45.6803 22.7257 51.0411 24.6913C53.7235 25.6748 55.8591 26.8341 57.3149 28.0961C58.7721 29.3593 59.5 30.6801 59.5 32Z" stroke="#C4C4C4"/>
<path d="M44.7504 6.4522C45.8935 7.11216 46.6734 8.40295 47.0387 10.2965C47.4038 12.1883 47.3399 14.6174 46.8505 17.4322C45.8724 23.0576 43.2143 30.1128 39.0937 37.25C34.973 44.3871 30.1921 50.2167 25.8094 53.8764C23.6165 55.7077 21.5447 56.9776 19.7238 57.6073C17.9013 58.2377 16.3935 58.2077 15.2504 57.5477C14.1073 56.8877 13.3274 55.597 12.9621 53.7034C12.597 51.8116 12.6609 49.3825 13.1503 46.5677C14.1284 40.9423 16.7865 33.8871 20.9071 26.75C25.0278 19.6128 29.8087 13.7832 34.1914 10.1235C36.3843 8.29224 38.4561 7.02233 40.277 6.39257C42.0995 5.76225 43.6073 5.79224 44.7504 6.4522Z" stroke="#C4C4C4"/>
</svg>
